<?xml version="1.0" standalone="no"?>
<!DOCTYPE svg PUBLIC "-//W3C//DTD SVG 20010904//EN"
 "http://www.w3.org/TR/2001/REC-SVG-20010904/DTD/svg10.dtd">
<svg version="1.0" xmlns="http://www.w3.org/2000/svg"
 width="700.000000pt" height="700.000000pt" viewBox="0 0 700.000000 700.000000"
 preserveAspectRatio="xMidYMid meet">
<metadata>
Created by potrace 1.14, written by Peter Selinger 2001-2017
</metadata>
<g transform="translate(0.000000,700.000000) scale(0.100000,-0.100000)"
fill="#000000" stroke="none">
<path d="M2035 6894 c-210 -52 -341 -179 -402 -391 -14 -50 -17 -127 -19 -592
-2 -293 -4 -535 -6 -537 -2 -1 -46 -6 -98 -9 -242 -15 -455 -111 -628 -282
-159 -158 -239 -321 -247 -503 -11 -259 144 -463 402 -531 67 -18 111 -21 326
-22 l247 -1 1 -136 c0 -164 0 -883 -1 -891 0 -3 -156 -5 -347 -6 -192 0 -373
-3 -403 -7 -300 -36 -592 -246 -726 -521 -149 -307 -57 -622 220 -754 130 -63
143 -64 729 -65 l527 0 1 -51 c3 -255 103 -490 283 -670 147 -146 316 -227
506 -241 259 -20 479 143 546 406 14 51 17 116 18 310 l2 245 519 0 520 0 6
-390 c3 -214 11 -408 16 -430 42 -165 124 -312 242 -438 134 -142 278 -223
466 -263 11 -2 61 -5 110 -5 250 -2 445 158 512 418 4 15 8 267 10 558 2 292
5 535 7 540 2 6 44 11 94 13 141 4 290 47 417 121 442 256 595 762 317 1053
-67 71 -153 120 -258 149 -71 19 -104 22 -326 22 l-248 0 0 517 0 516 338 0
c373 1 435 5 537 34 381 109 665 447 665 791 0 237 -141 418 -385 491 -67 21
-93 22 -609 25 -296 1 -540 4 -541 5 -1 2 -5 48 -8 103 -7 109 -23 184 -63
285 -126 319 -438 563 -733 574 -251 9 -444 -121 -529 -355 -26 -72 -27 -80
-30 -341 l-3 -268 -522 0 -522 0 0 338 c1 428 -10 510 -91 674 -117 239 -318
419 -554 495 -45 14 -247 26 -285 17z m1973 -3382 l-3 -517 -520 0 -520 0 -1
505 c0 278 2 510 4 517 3 9 127 12 523 12 l519 -1 -2 -516z"/>
</g>
</svg>
